<svg xmlns="http://www.w3.org/2000/svg" viewBox="200 424 626 178">
<path fill="#ffffff" d="M606.600525,591.398682 C606.594360,543.293274 606.592834,495.632751 606.561218,447.972229 C606.557983,443.146301 606.345703,438.320831 606.282349,433.494476 C606.239868,430.262085 607.647095,428.712036 611.132507,428.760437 C621.129211,428.899292 631.130127,428.874176 641.127258,428.745728 C644.195190,428.706299 645.986389,430.107513 647.621887,432.500397 C668.962097,463.723907 690.363037,494.905884 711.761780,526.089355 C712.672546,527.416565 713.294373,529.057312 715.181335,529.635986 C716.589722,527.862854 715.942200,525.800476 715.943848,523.911987 C715.970337,494.582520 715.931580,465.253052 715.922974,435.923584 C715.920898,428.996918 716.091370,428.826691 722.839600,428.808594 C731.505066,428.785339 740.174194,428.943542 748.834717,428.734985 C752.825684,428.638824 754.416626,429.823059 754.407532,434.088440 C754.295044,486.748108 754.308350,539.408142 754.397888,592.067871 C754.404297,595.868530 753.320374,597.467102 749.302490,597.373901 C739.975220,597.157410 730.638550,597.208496 721.308289,597.338013 C718.275513,597.380066 716.411133,596.150574 714.752747,593.722717 C693.329651,562.360535 671.840576,531.043396 650.352966,499.725281 C649.173828,498.006622 648.034241,496.197235 645.998718,495.002228 C644.625305,497.596893 645.064636,499.957397 645.063171,502.216034 C645.044373,531.545410 645.086792,560.874817 645.091858,590.204224 C645.093079,597.226868 645.029358,597.267822 638.243103,597.274841 C629.410950,597.283936 620.573853,597.093933 611.748718,597.340454 C607.528320,597.458252 605.883850,595.958618 606.600525,591.398682z"/>
<path fill="#ffffff" d="M496.027771,597.282959 C482.601685,596.994507 485.045288,599.476440 480.216431,586.622620 C477.700226,579.924683 475.272278,573.190918 472.962555,566.419434 C471.954254,563.463257 470.249146,562.285950 467.064392,562.305664 C448.743225,562.419128 430.420441,562.429016 412.099579,562.294617 C408.839142,562.270691 407.307495,563.585571 406.315460,566.492371 C403.252228,575.468018 399.991791,584.376221 396.883972,593.336914 C396.130188,595.510254 395.367584,597.300171 392.556641,597.282410 C380.898621,597.208801 369.239899,597.249634 357.581665,597.194885 C356.829163,597.191345 356.078796,596.735535 355.497650,596.545715 C354.731445,594.639038 355.729431,593.351929 356.245850,591.998840 C376.066254,540.067566 395.896057,488.139740 415.737335,436.216370 C418.578644,428.780792 418.608429,428.792969 426.813995,428.788818 C436.807739,428.783783 446.802765,428.865906 456.794495,428.721191 C460.109039,428.673218 461.975189,429.884796 463.167236,433.012146 C479.169189,474.993164 495.249084,516.944519 511.316437,558.900574 C515.065979,568.691528 518.871704,578.461121 522.583069,588.266479 C523.561768,590.852173 525.108643,593.317932 524.809387,596.823792 C515.356812,597.736450 505.922577,597.041016 496.027771,597.282959 M428.862732,530.521851 C438.946838,530.521851 449.030945,530.521851 460.147491,530.521851 C453.282440,511.041656 446.820374,492.704926 440.087372,473.599426 C435.675293,482.405487 420.558502,525.647522 420.400208,529.611694 C421.142303,529.831482 421.912964,530.196716 422.709930,530.268250 C424.527679,530.431335 426.358368,530.450500 428.862732,530.521851z"/>
<path fill="#ffffff" d="M305.154205,525.895386 C321.252228,549.375549 337.152618,572.555359 352.971710,595.616577 C351.307953,597.970398 349.307892,597.253418 347.605316,597.263916 C336.274445,597.333618 324.938324,597.118225 313.613892,597.398071 C309.216095,597.506714 306.591766,595.856262 304.234406,592.298401 C291.996002,573.827454 279.560669,555.486816 267.190979,537.102905 C266.548431,536.147888 265.878693,535.211182 264.743958,533.578857 C258.279480,541.363831 252.023849,548.810547 245.890915,556.356995 C244.680786,557.846069 245.138077,559.891663 245.134995,561.705505 C245.118301,571.537048 244.939514,581.374634 245.236252,591.197510 C245.383713,596.078918 243.559830,597.548035 238.840927,597.397339 C229.518646,597.099609 220.176697,597.149109 210.850342,597.370239 C206.649689,597.469849 204.800613,596.232544 204.870575,591.746338 C205.065430,579.251709 204.980270,566.751587 204.894226,554.254395 C204.872177,551.055298 205.972610,548.541809 208.013580,546.115417 C239.863190,508.252167 271.657166,470.342072 303.459839,432.439331 C305.089478,430.497162 306.709656,428.735748 309.610443,428.748230 C322.774261,428.804840 335.938477,428.756378 349.102570,428.763397 C349.909210,428.763824 350.780365,428.743256 351.762390,430.274689 C347.452698,435.492462 343.005554,440.948639 338.481781,446.340576 C323.387299,464.331787 308.331421,482.356354 293.085815,500.218811 C290.677094,503.040955 290.540161,504.963318 292.751251,507.915955 C297.040497,513.643616 300.912018,519.684143 305.154205,525.895386z"/>
<path fill="#ffffff" d="M792.032593,428.790222 C800.191528,428.793091 807.859741,428.953003 815.517212,428.734680 C819.533936,428.620148 821.176270,429.893555 821.169739,434.119324 C821.088440,486.599213 821.102600,539.079346 821.202454,591.559204 C821.210571,595.825745 819.817688,597.503113 815.405396,597.373901 C806.416382,597.110657 797.414490,597.288147 788.417908,597.279663 C781.233215,597.272827 781.069397,597.168335 781.049622,590.119507 C780.995422,570.793701 780.986511,551.467712 780.976257,532.141785 C780.959717,501.153534 780.962463,470.165283 780.944641,439.177032 C780.937500,426.698639 780.864441,429.012878 792.032593,428.790222z"/>
<path fill="#ffffff" d="M539.720581,525.000000 C539.714172,494.853058 539.703491,465.206085 539.704224,435.559143 C539.704346,428.859344 539.722534,428.840393 546.318848,428.826111 C555.479431,428.806274 564.642883,428.952972 573.799194,428.754089 C577.767639,428.667908 579.407288,429.822968 579.398438,434.093567 C579.288818,486.725006 579.289062,539.356812 579.403076,591.988281 C579.412292,596.240479 577.838074,597.424988 573.841248,597.337341 C564.352051,597.129028 554.850708,597.085754 545.363647,597.335388 C540.893555,597.452942 539.646423,595.692383 539.673279,591.455811 C539.812500,569.471313 539.727417,547.485413 539.720581,525.000000z"/>
<path fill="#ffffff" d="M204.997208,433.358459 C205.105103,430.030762 206.511322,428.766327 209.439194,428.785767 C219.770798,428.854401 230.104126,428.874146 240.434830,428.749359 C243.879761,428.707733 245.191010,430.099731 245.170364,433.492645 C245.081100,448.157104 245.109970,462.822357 245.124466,477.487305 C245.126709,479.750732 244.516495,481.747803 243.051834,483.483856 C231.773666,496.852173 220.506592,510.229797 209.205841,523.578918 C208.482681,524.433167 207.507812,525.074341 205.705383,525.703308 C204.789490,495.024323 204.952271,464.421844 204.997208,433.358459z"/>
</svg>